Coordinates
version=1
nRows=6
nColumns=63
inDegrees=yes

Units are S.I. units (second, meters, Newtons, ...)
If the header above contains a line with 'inDegrees', this indicates whether rotational values are in degrees (yes) or radians (no).

endheader
time	pelvis_tilt	pelvis_list	pelvis_rotation	pelvis_tx	pelvis_ty	pelvis_tz	hip_flexion_r	hip_adduction_r	hip_rotation_r	knee_angle_r	knee_angle_r_beta	ankle_angle_r	subtalar_angle_r	mtp_angle_r	hip_flexion_l	hip_adduction_l	hip_rotation_l	knee_angle_l	knee_angle_l_beta	ankle_angle_l	subtalar_angle_l	mtp_angle_l	L5_S1_Flex_Ext	L5_S1_Lat_Bending	L5_S1_axial_rotation	L4_L5_Flex_Ext	L4_L5_Lat_Bending	L4_L5_axial_rotation	L3_L4_Flex_Ext	L3_L4_Lat_Bending	L3_L4_axial_rotation	L2_L3_Flex_Ext	L2_L3_Lat_Bending	L2_L3_axial_rotation	L1_L2_Flex_Ext	L1_L2_Lat_Bending	L1_L2_axial_rotation	L1_T12_Flex_Ext	L1_T12_Lat_Bending	L1_T12_axial_rotation	Abs_r3	Abs_r2	Abs_r1	Abs_t1	Abs_t2	neck_flexion	neck_bending	neck_rotation	arm_flex_r	arm_add_r	arm_rot_r	elbow_flex_r	pro_sup_r	wrist_flex_r	wrist_dev_r	arm_flex_l	arm_add_l	arm_rot_l	elbow_flex_l	pro_sup_l	wrist_flex_l	wrist_dev_l
7.250000	3.373340	2.790895	95.462818	0.172334	1.136550	0.430602	-4.055748	2.709985	19.400655	1.160322	0.020251	24.754111	-12.302593	0.000000	-2.548628	-3.121495	3.379289	3.557111	0.062083	30.295130	6.623037	0.000000	0.179081	0.305179	-0.595641	0.332571	0.405887	-0.632868	0.294212	0.742011	-0.632868	0.204672	0.742011	-0.521186	0.166295	0.622320	-0.483958	0.102327	0.472722	-0.446731	1.279157	3.452241	-3.312776	0.000000	0.000000	7.609412	-4.437623	6.213704	119.123213	-34.297419	50.743006	47.074644	74.977866	-3.225709	-0.017352	133.670262	-39.092946	88.286795	40.101368	75.227231	-4.282240	-4.346215
7.266667	3.342176	2.666316	95.253860	0.172624	1.136769	0.430973	-3.947884	2.649175	20.164640	1.058136	0.018468	24.251458	-12.825089	0.000000	-2.326372	-3.085743	1.923768	3.931377	0.068615	30.324321	7.684748	0.000000	0.200707	0.299751	-0.543533	0.372732	0.398669	-0.577504	0.329741	0.728815	-0.577504	0.229388	0.728815	-0.475591	0.186376	0.611252	-0.441620	0.114684	0.464314	-0.407650	1.433627	3.390843	-3.022966	0.000000	0.000000	7.447514	-4.644469	5.939013	119.714720	-32.260127	48.967933	46.564535	76.620928	-3.912387	-1.341956	133.989738	-36.674636	87.015797	38.884646	76.885290	-5.023196	-3.398222
7.283333	3.292107	2.573739	95.034248	0.173021	1.137014	0.431202	-3.898742	2.574642	20.972751	0.970645	0.016941	23.702248	-13.430277	0.000000	-2.133943	-3.034852	0.598218	4.348402	0.075894	30.333778	8.561689	0.000000	0.219000	0.286643	-0.476648	0.406705	0.381235	-0.506439	0.359796	0.696943	-0.506439	0.250295	0.696943	-0.417067	0.203364	0.584522	-0.387277	0.125137	0.444010	-0.357486	1.564297	3.242560	-2.650973	0.000000	0.000000	7.037306	-4.656050	5.340170	119.992429	-30.398461	47.337044	46.414348	78.206764	-4.808913	-2.672934	134.220888	-34.403832	85.620221	38.452835	78.894727	-5.662572	-2.329620
7.300000	3.227260	2.514134	94.826512	0.173460	1.137268	0.431277	-3.909109	2.490772	21.769100	0.897646	0.015667	23.143534	-14.083242	0.000000	-1.975165	-2.972644	-0.533786	4.786613	0.083542	30.332354	9.210717	0.000000	0.232457	0.267352	-0.400450	0.431695	0.355579	-0.425478	0.381903	0.650041	-0.425478	0.265675	0.650041	-0.350394	0.215859	0.545185	-0.325366	0.132826	0.414129	-0.300337	1.660415	3.024344	-2.227182	0.000000	0.000000	6.420461	-4.470752	4.477618	119.994454	-28.730977	45.945292	46.586215	79.757484	-5.864138	-3.918756	134.319936	-32.334502	84.119550	38.789063	81.136362	-6.151561	-1.333654
7.316667	3.157262	2.477342	94.638670	0.173898	1.137511	0.431199	-3.963407	2.403458	22.438026	0.842016	0.014696	22.634778	-14.615523	0.000000	-1.843713	-2.906817	-1.450781	5.223751	0.091172	30.315620	9.623957	0.000000	0.242171	0.244190	-0.318412	0.449736	0.324772	-0.338312	0.397863	0.593723	-0.338312	0.276777	0.593723	-0.278610	0.224880	0.497952	-0.258710	0.138377	0.378250	-0.238809	1.729804	2.762323	-1.770910	0.000000	0.000000	5.629812	-4.151757	3.399291	119.754145	-27.258628	44.853732	47.046535	81.317676	-7.008167	-5.016948	134.245941	-30.489022	82.602788	39.805192	83.287122	-6.511795	-0.639110
7.333333	3.086047	2.461845	94.505235	0.174254	1.137728	0.430983	-4.059388	2.316975	22.870017	0.800844	0.013977	22.218785	-14.921415	0.000000	-1.733116	-2.842040	-2.163306	5.653473	0.098672	30.290462	9.865531	0.000000	0.247512	0.219390	-0.243713	0.459654	0.291789	-0.258946	0.406637	0.533426	-0.258946	0.282881	0.533426	-0.213249	0.229839	0.447381	-0.198017	0.141428	0.339836	-0.182785	1.767951	2.481788	-1.355461	0.000000	0.000000	4.714375	-3.738794	2.212226	119.311084	-25.948989	44.089286	47.758190	82.932317	-8.094466	-5.902723	134.043037	-28.887300	81.258555	41.376988	85.087172	-6.727428	-0.436602
